<svg width="16" height="16" viewBox="0 0 16 16" fill="none" xmlns="http://www.w3.org/2000/svg">
<path d="M7.288 1.6392C7.4989 1.61586 7.69189 1.5097 7.82452 1.34407C7.95714 1.17844 8.01854 0.966902 7.9952 0.756002C7.97186 0.545102 7.8657 0.352111 7.70007 0.219486C7.53443 0.08686 7.3229 0.0254634 7.112 0.0488025C3.1104 0.491202 0 3.8816 0 8C0 12.4184 3.5816 16 8 16C12.1168 16 15.5064 12.8904 15.9512 8.8912C15.9745 8.6803 15.9131 8.46877 15.7805 8.30314C15.6479 8.1375 15.4549 8.03134 15.244 8.008C15.0331 7.98466 14.8216 8.04606 14.6559 8.17869C14.4903 8.31131 14.3841 8.5043 14.3608 8.7152C14.1766 10.3393 13.378 11.8314 12.1288 12.8855C10.8797 13.9396 9.27455 14.4759 7.64262 14.3844C6.01068 14.293 4.47556 13.5807 3.35201 12.3936C2.22846 11.2065 1.60162 9.6345 1.6 8C1.60005 6.42586 2.18015 4.90693 3.22945 3.73352C4.27875 2.56011 5.72365 1.8145 7.288 1.6392Z" fill="#475F7B"/>
<path d="M10.2136 0.311995C10.1124 0.28363 10.0067 0.275469 9.90236 0.287979C9.79803 0.300489 9.69719 0.333424 9.6056 0.384905C9.42061 0.488875 9.28451 0.662072 9.22722 0.866395C9.16993 1.07072 9.19616 1.28943 9.30013 1.47442C9.4041 1.6594 9.5773 1.79551 9.78162 1.8528C10.0112 1.9176 10.2368 1.9952 10.4552 2.0848C10.6517 2.1651 10.872 2.16407 11.0677 2.08193C11.2634 1.99979 11.4185 1.84327 11.4988 1.6468C11.5791 1.45032 11.5781 1.23 11.496 1.03428C11.4138 0.83857 11.2573 0.683503 11.0608 0.603195C10.7842 0.490361 10.5013 0.393403 10.2136 0.312795V0.311995Z" fill="#475F7B"/>
<path d="M12.28 2.1536C12.4234 1.99745 12.6229 1.90461 12.8347 1.89546C13.0465 1.88631 13.2533 1.9616 13.4096 2.1048C13.5792 2.26 13.7416 2.4224 13.8968 2.5912C14.0402 2.74757 14.1157 2.95451 14.1065 3.16651C14.0974 3.3785 14.0044 3.57817 13.848 3.7216C13.6916 3.86503 13.4847 3.94046 13.2727 3.93131C13.0607 3.92216 12.861 3.82917 12.7176 3.6728C12.5937 3.53765 12.464 3.40793 12.3288 3.284C12.2513 3.21304 12.1886 3.12751 12.1441 3.03229C12.0997 2.93708 12.0745 2.83404 12.0699 2.72907C12.0653 2.6241 12.0814 2.51925 12.1173 2.42051C12.1532 2.32177 12.2082 2.23107 12.2792 2.1536H12.28Z" fill="#475F7B"/>
<path d="M7.20002 3.20001C7.4122 3.20001 7.61568 3.2843 7.76571 3.43433C7.91574 3.58436 8.00002 3.78784 8.00002 4.00001V8.00001H10.4C10.6122 8.00001 10.8157 8.0843 10.9657 8.23433C11.1157 8.38436 11.2 8.58784 11.2 8.80001C11.2 9.01219 11.1157 9.21567 10.9657 9.3657C10.8157 9.51573 10.6122 9.60001 10.4 9.60001H7.20002C6.98785 9.60001 6.78437 9.51573 6.63434 9.3657C6.48431 9.21567 6.40002 9.01219 6.40002 8.80001V4.00001C6.40002 3.78784 6.48431 3.58436 6.63434 3.43433C6.78437 3.2843 6.98785 3.20001 7.20002 3.20001Z" fill="#475F7B"/>
<path d="M14.352 4.49841C14.5484 4.41812 14.7686 4.41912 14.9642 4.50118C15.1598 4.58324 15.3149 4.73965 15.3952 4.93601C15.5086 5.21369 15.6061 5.49762 15.6872 5.78641C15.7187 5.88847 15.7295 5.99582 15.7189 6.10212C15.7083 6.20843 15.6765 6.31153 15.6254 6.40535C15.5743 6.49916 15.505 6.5818 15.4214 6.64837C15.3379 6.71494 15.2418 6.76411 15.139 6.79296C15.0361 6.82182 14.9285 6.82978 14.8225 6.81637C14.7165 6.80297 14.6143 6.76847 14.5218 6.71492C14.4294 6.66137 14.3486 6.58984 14.2843 6.50457C14.2199 6.41929 14.1733 6.32199 14.1472 6.21841C14.0824 5.98859 14.0047 5.76262 13.9144 5.54161C13.8341 5.34534 13.8349 5.1252 13.9168 4.92959C13.9987 4.73397 14.155 4.57888 14.3512 4.49841H14.352Z" fill="#475F7B"/>
</svg>
