<svg width="19" height="18" viewBox="0 0 19 18" fill="none" xmlns="http://www.w3.org/2000/svg">
<path fill-rule="evenodd" clip-rule="evenodd" d="M13 10L13.2946 10.2946C13.6836 10.6836 14 11.4472 14 11.999V13.001C14 13.5573 13.5512 14 12.9975 14H3.00247C2.45576 14 2 13.5528 2 13.001V11.999C2 11.4427 2.31581 10.6842 2.70538 10.2946L3 10V8.984C3 6.559 4.728 4.555 7.02 4.099C7.017 4.065 7 4.035 7 4C7 3.45 7.45 3 8 3C8.55 3 9 3.45 9 4C9 4.035 8.983 4.065 8.98 4.099C11.272 4.555 13 6.574 13 9V10ZM10 15C10 16.104 9.105 17 8 17C6.895 17 6 16.104 6 15H10Z" fill="#475F7B"/>
<circle cx="13.5" cy="5.5" r="5.5" fill="#FF5B5C"/>
<path d="M13.499 9.09C12.941 9.09 12.482 9.003 12.122 8.829C11.762 8.655 11.492 8.439 11.312 8.181C11.138 7.923 11.045 7.668 11.033 7.416C11.033 7.362 11.051 7.32 11.087 7.29C11.129 7.254 11.177 7.236 11.231 7.236H12.041C12.101 7.236 12.152 7.248 12.194 7.272C12.242 7.296 12.278 7.344 12.302 7.416C12.38 7.668 12.533 7.839 12.761 7.929C12.989 8.019 13.238 8.064 13.508 8.064C13.868 8.064 14.153 7.98 14.363 7.812C14.579 7.638 14.687 7.392 14.687 7.074C14.687 6.756 14.588 6.528 14.39 6.39C14.192 6.246 13.916 6.174 13.562 6.174H12.635C12.569 6.174 12.515 6.156 12.473 6.12C12.431 6.078 12.41 6.024 12.41 5.958V5.58C12.41 5.52 12.422 5.469 12.446 5.427C12.476 5.379 12.506 5.34 12.536 5.31L14.147 3.735H11.573C11.507 3.735 11.453 3.714 11.411 3.672C11.375 3.63 11.357 3.579 11.357 3.519V2.925C11.357 2.859 11.375 2.805 11.411 2.763C11.453 2.721 11.507 2.7 11.573 2.7H15.434C15.5 2.7 15.554 2.721 15.596 2.763C15.638 2.805 15.659 2.859 15.659 2.925V3.465C15.659 3.519 15.647 3.567 15.623 3.609C15.599 3.651 15.572 3.687 15.542 3.717L13.985 5.319L14.093 5.328C14.459 5.358 14.783 5.442 15.065 5.58C15.347 5.712 15.569 5.907 15.731 6.165C15.893 6.423 15.974 6.747 15.974 7.137C15.974 7.545 15.866 7.896 15.65 8.19C15.434 8.478 15.14 8.7 14.768 8.856C14.396 9.012 13.973 9.09 13.499 9.09Z" fill="white"/>
</svg>
