<svg width="12" height="8" viewBox="0 0 12 8" fill="none" xmlns="http://www.w3.org/2000/svg">
<path d="M4 6.4H8C8.09996 6.39982 8.19636 6.43706 8.27023 6.50441C8.34409 6.57175 8.39007 6.66431 8.3991 6.76386C8.40813 6.86341 8.37956 6.96273 8.31902 7.04227C8.25848 7.1218 8.17036 7.17579 8.072 7.1936L8 7.2H4C3.90004 7.20018 3.80364 7.16294 3.72977 7.09559C3.65591 7.02825 3.60993 6.93569 3.6009 6.83614C3.59187 6.7366 3.62043 6.63727 3.68097 6.55774C3.74151 6.4782 3.82964 6.42421 3.928 6.4064L4 6.4H8H4ZM2.4 3.2H9.6C9.69995 3.19982 9.79636 3.23706 9.87022 3.30441C9.94409 3.37175 9.99007 3.46431 9.9991 3.56386C10.0081 3.66341 9.97956 3.76273 9.91902 3.84227C9.85848 3.9218 9.77036 3.97579 9.672 3.9936L9.6 4H2.4C2.30004 4.00019 2.20364 3.96294 2.12977 3.89559C2.05591 3.82825 2.00993 3.73569 2.0009 3.63614C1.99187 3.5366 2.02043 3.43727 2.08097 3.35774C2.14152 3.2782 2.22964 3.22421 2.328 3.2064L2.4 3.2H9.6H2.4ZM0.799999 6.78551e-07H11.2C11.3 -0.000183332 11.3964 0.0370639 11.4702 0.104407C11.5441 0.171751 11.5901 0.26431 11.5991 0.363858C11.6081 0.463406 11.5796 0.562728 11.519 0.642266C11.4585 0.721804 11.3704 0.775793 11.272 0.793601L11.2 0.800001H0.799999C0.700042 0.800185 0.603639 0.762937 0.529772 0.695594C0.455906 0.62825 0.40993 0.535691 0.400898 0.436143C0.391867 0.336595 0.420434 0.237273 0.480974 0.157735C0.541515 0.0781977 0.629641 0.0242088 0.727999 0.0064006L0.799999 6.78551e-07H11.2H0.799999Z" fill="#475F7B"/>
</svg>
