<svg width="17" height="14" viewBox="0 0 17 14" fill="none" xmlns="http://www.w3.org/2000/svg">
<path d="M7.33025 1.4H7.28708L5.78563 0.154C5.66623 0.0545904 5.5178 0.000283002 5.36473 0H3.00395C2.28838 0 1.60213 0.294999 1.09615 0.820101C0.590165 1.3452 0.305908 2.05739 0.305908 2.8V3.5H5.10437L7.33025 1.4ZM9.3349 1.4L5.818 4.718C5.69395 4.83501 5.53236 4.89989 5.36473 4.9H0.305908V11.2C0.305908 11.9426 0.590165 12.6548 1.09615 13.1799C1.60213 13.705 2.28838 14 3.00395 14H13.7961C14.5117 14 15.1979 13.705 15.7039 13.1799C16.2099 12.6548 16.4941 11.9426 16.4941 11.2V4.2C16.4941 3.45739 16.2099 2.7452 15.7039 2.2201C15.1979 1.695 14.5117 1.4 13.7961 1.4H9.3349Z" fill="#5585FF"/>
</svg>
