<svg width="14" height="12" viewBox="0 0 14 12" fill="none" xmlns="http://www.w3.org/2000/svg">
<path d="M7.50334 11.3327V11.3313H12.502C13.146 11.3313 13.6687 10.8087 13.6687 10.1647V1.83467C13.6687 1.52525 13.5458 1.22851 13.327 1.00971C13.1082 0.790921 12.8114 0.668005 12.502 0.668005H6.50334V0.669338H1.50401C1.19459 0.669338 0.897842 0.792254 0.67905 1.01105C0.460258 1.22984 0.337341 1.52659 0.337341 1.836V10.166C0.337341 10.8107 0.860008 11.3327 1.50401 11.3327H7.50267H7.50334ZM12.502 10.3313H7.50334V1.668H12.502C12.5462 1.668 12.5886 1.68556 12.6199 1.71682C12.6511 1.74808 12.6687 1.79047 12.6687 1.83467V10.164C12.6687 10.2082 12.6511 10.2506 12.6199 10.2819C12.5886 10.3131 12.5462 10.3307 12.502 10.3307V10.3313ZM6.50334 10.3327H1.50467C1.46047 10.3327 1.41808 10.3151 1.38682 10.2839C1.35557 10.2526 1.33801 10.2102 1.33801 10.166V1.836C1.33801 1.744 1.41267 1.66934 1.50467 1.66934H6.50334V10.3327Z" fill="#475F7B"/>
</svg>
