<svg width="16" height="16" viewBox="0 0 16 16" fill="none" xmlns="http://www.w3.org/2000/svg">
<g clip-path="url(#clip0_1_417)">
<path d="M8.53332 7.61905C8.62841 7.61905 8.72075 7.62636 8.81218 7.64008C8.45561 7.89516 8.13286 8.19596 7.85401 8.53333H2.13332C1.89084 8.53333 1.65828 8.62966 1.48682 8.80112C1.31536 8.97258 1.21903 9.20514 1.21903 9.44762V10.819C1.21903 12.1054 2.66269 13.1048 5.33332 13.1048C5.84505 13.1082 6.35605 13.0657 6.86018 12.9777C6.93606 13.2785 7.04029 13.5674 7.16738 13.8435C6.56357 13.9641 5.94905 14.023 5.33332 14.019C2.21378 14.019 0.304749 12.697 0.304749 10.819V9.44762C0.304749 8.96265 0.497401 8.49755 0.840325 8.15463C1.18325 7.8117 1.64835 7.61905 2.13332 7.61905H8.53332Z" fill="#475F7B"/>
<path d="M14.019 4.41905C14.019 5.02525 13.7782 5.60663 13.3496 6.03529C12.9209 6.46394 12.3395 6.70476 11.7333 6.70476C11.1271 6.70476 10.5457 6.46394 10.1171 6.03529C9.68842 5.60663 9.4476 5.02525 9.4476 4.41905C9.4476 3.81284 9.68842 3.23146 10.1171 2.8028C10.5457 2.37415 11.1271 2.13333 11.7333 2.13333C12.3395 2.13333 12.9209 2.37415 13.3496 2.8028C13.7782 3.23146 14.019 3.81284 14.019 4.41905ZM11.7333 3.04762C11.3696 3.04762 11.0208 3.19211 10.7636 3.4493C10.5064 3.70649 10.3619 4.05532 10.3619 4.41905C10.3619 4.78277 10.5064 5.1316 10.7636 5.38879C11.0208 5.64598 11.3696 5.79047 11.7333 5.79047C12.097 5.79047 12.4459 5.64598 12.7031 5.38879C12.9603 5.1316 13.1047 4.78277 13.1047 4.41905C13.1047 4.05532 12.9603 3.70649 12.7031 3.4493C12.4459 3.19211 12.097 3.04762 11.7333 3.04762Z" fill="#475F7B"/>
<path d="M5.3333 0.304749C5.75353 0.304749 6.16965 0.387519 6.55789 0.548334C6.94613 0.709149 7.2989 0.944859 7.59604 1.24201C7.89319 1.53915 8.1289 1.89192 8.28972 2.28016C8.45053 2.6684 8.5333 3.08452 8.5333 3.50475C8.5333 3.92498 8.45053 4.34109 8.28972 4.72934C8.1289 5.11758 7.89319 5.47034 7.59604 5.76749C7.2989 6.06464 6.94613 6.30035 6.55789 6.46116C6.16965 6.62198 5.75353 6.70475 5.3333 6.70475C4.48461 6.70475 3.67068 6.36761 3.07056 5.76749C2.47044 5.16737 2.1333 4.35344 2.1333 3.50475C2.1333 2.65606 2.47044 1.84212 3.07056 1.24201C3.67068 0.64189 4.48461 0.304749 5.3333 0.304749ZM5.3333 1.21903C4.72709 1.21903 4.14571 1.45985 3.71706 1.8885C3.2884 2.31716 3.04759 2.89854 3.04759 3.50475C3.04759 4.11096 3.2884 4.69234 3.71706 5.12099C4.14571 5.54965 4.72709 5.79046 5.3333 5.79046C5.93951 5.79046 6.52089 5.54965 6.94955 5.12099C7.3782 4.69234 7.61902 4.11096 7.61902 3.50475C7.61902 2.89854 7.3782 2.31716 6.94955 1.8885C6.52089 1.45985 5.93951 1.21903 5.3333 1.21903Z" fill="#475F7B"/>
<path d="M15.8476 11.7333C15.8476 12.8245 15.4142 13.871 14.6426 14.6426C13.871 15.4142 12.8245 15.8476 11.7333 15.8476C10.6422 15.8476 9.59567 15.4142 8.8241 14.6426C8.05252 13.871 7.61905 12.8245 7.61905 11.7333C7.61905 10.6422 8.05252 9.59567 8.8241 8.8241C9.59567 8.05252 10.6422 7.61905 11.7333 7.61905C12.8245 7.61905 13.871 8.05252 14.6426 8.8241C15.4142 9.59567 15.8476 10.6422 15.8476 11.7333ZM12.1905 9.90476C12.1905 9.78352 12.1423 9.66724 12.0566 9.58151C11.9709 9.49578 11.8546 9.44762 11.7333 9.44762C11.6121 9.44762 11.4958 9.49578 11.4101 9.58151C11.3244 9.66724 11.2762 9.78352 11.2762 9.90476V11.2762H9.90476C9.78352 11.2762 9.66724 11.3244 9.58151 11.4101C9.49578 11.4958 9.44762 11.6121 9.44762 11.7333C9.44762 11.8546 9.49578 11.9709 9.58151 12.0566C9.66724 12.1423 9.78352 12.1905 9.90476 12.1905H11.2762V13.5619C11.2762 13.6831 11.3244 13.7994 11.4101 13.8852C11.4958 13.9709 11.6121 14.019 11.7333 14.019C11.8546 14.019 11.9709 13.9709 12.0566 13.8852C12.1423 13.7994 12.1905 13.6831 12.1905 13.5619V12.1905H13.5619C13.6831 12.1905 13.7994 12.1423 13.8852 12.0566C13.9709 11.9709 14.019 11.8546 14.019 11.7333C14.019 11.6121 13.9709 11.4958 13.8852 11.4101C13.7994 11.3244 13.6831 11.2762 13.5619 11.2762H12.1905V9.90476Z" fill="#475F7B"/>
</g>
<defs>
<clipPath id="clip0_1_417">
<rect width="16" height="16" fill="white"/>
</clipPath>
</defs>
</svg>
