<svg width="16" height="16" viewBox="0 0 16 16" fill="none" xmlns="http://www.w3.org/2000/svg">
<path d="M6.1764 1.21064e-08C7.32623 -7.19651e-05 8.45325 0.320807 9.43059 0.926513C10.4079 1.53222 11.1968 2.3987 11.7083 3.42842C12.2199 4.45814 12.4338 5.6102 12.3261 6.75491C12.2184 7.89963 11.7932 8.99154 11.0985 9.90774L15.7556 14.5646C15.9049 14.7151 15.992 14.9163 15.9994 15.1282C16.0069 15.34 15.9342 15.5469 15.7958 15.7075C15.6575 15.8681 15.4636 15.9706 15.253 15.9946C15.0424 16.0186 14.8305 15.9623 14.6595 15.8369L14.5652 15.7549L9.90813 11.0981C9.12716 11.69 8.21653 12.0877 7.25148 12.2582C6.28643 12.4287 5.29466 12.3671 4.35812 12.0785C3.42158 11.79 2.56715 11.2827 1.86542 10.5987C1.1637 9.91461 0.634825 9.0734 0.322499 8.14456C0.0101741 7.21571 -0.0766369 6.22587 0.0692393 5.25684C0.215115 4.28781 0.589491 3.3674 1.16143 2.57165C1.73338 1.77591 2.48647 1.12767 3.35848 0.680507C4.2305 0.233341 5.19641 8.09315e-05 6.1764 1.21064e-08ZM6.1764 1.68442C4.98505 1.68442 3.8425 2.15766 3.00009 3.00003C2.15768 3.8424 1.68441 4.9849 1.68441 6.17619C1.68441 7.36749 2.15768 8.50999 3.00009 9.35236C3.8425 10.1947 4.98505 10.668 6.1764 10.668C7.36775 10.668 8.51031 10.1947 9.35272 9.35236C10.1951 8.50999 10.6684 7.36749 10.6684 6.17619C10.6684 4.9849 10.1951 3.8424 9.35272 3.00003C8.51031 2.15766 7.36775 1.68442 6.1764 1.68442Z" fill="#475F7B"/>
</svg>
