<svg width="14" height="14" viewBox="0 0 14 14" fill="none" xmlns="http://www.w3.org/2000/svg">
<path d="M3.99999 1.11212e-07C4.09882 -6.57875e-05 4.19545 0.029156 4.27767 0.0839748C4.3599 0.138794 4.42404 0.216751 4.46199 0.308L6.96199 6.308C7.01291 6.43053 7.01307 6.56827 6.96244 6.69092C6.9118 6.81357 6.81452 6.91108 6.69199 6.962C6.56946 7.01292 6.43172 7.01308 6.30907 6.96245C6.18642 6.91181 6.08891 6.81453 6.03799 6.692L5.33299 5H2.66699L1.96199 6.692C1.9379 6.7542 1.90161 6.81096 1.85526 6.85892C1.8089 6.90689 1.75342 6.94509 1.69207 6.97129C1.63072 6.99748 1.56475 7.01113 1.49805 7.01144C1.43135 7.01175 1.36526 6.99871 1.30367 6.97309C1.24208 6.94747 1.18624 6.90978 1.13944 6.86225C1.09264 6.81472 1.05583 6.7583 1.03116 6.69633C1.0065 6.63435 0.994485 6.56806 0.995829 6.50137C0.997173 6.43468 1.01185 6.36893 1.03899 6.308L3.53899 0.308C3.57687 0.216908 3.64086 0.139059 3.72289 0.0842522C3.80492 0.0294457 3.90133 0.000131665 3.99999 1.11212e-07ZM3.99999 1.8L3.08299 4H4.91699L3.99999 1.8ZM1.99999 8C1.86738 8 1.74021 8.05268 1.64644 8.14645C1.55267 8.24021 1.49999 8.36739 1.49999 8.5C1.49999 8.63261 1.55267 8.75979 1.64644 8.85355C1.74021 8.94732 1.86738 9 1.99999 9H4.53999L1.58999 13.213C1.53745 13.288 1.50649 13.3759 1.50049 13.4672C1.4945 13.5586 1.51369 13.6498 1.55598 13.731C1.59828 13.8122 1.66205 13.8802 1.74034 13.9276C1.81864 13.9751 1.90845 14.0001 1.99999 14H5.49999C5.6326 14 5.75978 13.9473 5.85354 13.8536C5.94731 13.7598 5.99999 13.6326 5.99999 13.5C5.99999 13.3674 5.94731 13.2402 5.85354 13.1464C5.75978 13.0527 5.6326 13 5.49999 13H2.95999L5.90999 8.787C5.96253 8.71204 5.99349 8.6241 5.99949 8.53275C6.00549 8.44141 5.98629 8.35017 5.944 8.26899C5.9017 8.1878 5.83793 8.11979 5.75964 8.07235C5.68134 8.02492 5.59153 7.9999 5.49999 8H1.99999ZM7.14699 10.146C7.24075 10.0523 7.36791 9.99961 7.50049 9.99961C7.63307 9.99961 7.76023 10.0523 7.85399 10.146L9.99999 12.293V0.5C9.99999 0.367392 10.0527 0.240215 10.1464 0.146447C10.2402 0.0526785 10.3674 1.11212e-07 10.5 1.11212e-07C10.6326 1.11212e-07 10.7598 0.0526785 10.8535 0.146447C10.9473 0.240215 11 0.367392 11 0.5V12.293L13.146 10.147C13.2397 10.0531 13.367 10.0003 13.4996 10.0002C13.5653 10.0002 13.6304 10.0131 13.6911 10.0382C13.7518 10.0633 13.807 10.1001 13.8535 10.1465C13.9 10.1929 13.9369 10.248 13.9621 10.3087C13.9872 10.3694 14.0002 10.4344 14.0003 10.5001C14.0003 10.5658 13.9874 10.6309 13.9623 10.6916C13.9372 10.7523 13.9004 10.8075 13.854 10.854L10.854 13.854C10.7602 13.9477 10.6331 14.0004 10.5005 14.0004C10.3679 14.0004 10.2408 13.9477 10.147 13.854L7.14699 10.854C7.10043 10.8076 7.06348 10.7524 7.03828 10.6916C7.01307 10.6309 7.0001 10.5658 7.0001 10.5C7.0001 10.4342 7.01307 10.3691 7.03828 10.3084C7.06348 10.2476 7.10043 10.1924 7.14699 10.146Z" fill="#475F7B"/>
</svg>
