<svg width="12" height="12" viewBox="0 0 12 12" fill="none" xmlns="http://www.w3.org/2000/svg">
<path d="M9.59999 0.399994H2.39999C1.86956 0.399994 1.36085 0.610708 0.98578 0.98578C0.610708 1.36085 0.399994 1.86956 0.399994 2.39999V9.59999C0.399994 10.1304 0.610708 10.6391 0.98578 11.0142C1.36085 11.3893 1.86956 11.6 2.39999 11.6H9.59999C10.1304 11.6 10.6391 11.3893 11.0142 11.0142C11.3893 10.6391 11.6 10.1304 11.6 9.59999V2.39999C11.6 1.86956 11.3893 1.36085 11.0142 0.98578C10.6391 0.610708 10.1304 0.399994 9.59999 0.399994V0.399994ZM1.19999 9.19999H5.19999V10.8H2.39999L2.28479 10.7944C1.98787 10.7658 1.71225 10.6276 1.51169 10.4067C1.31113 10.1859 1.20001 9.8983 1.19999 9.59999V9.19999ZM2.39999 1.19999H5.19999L5.19439 2.79999H1.19439L1.19999 2.39999L1.20559 2.28479C1.23423 1.98787 1.37244 1.71225 1.59326 1.51169C1.81408 1.31113 2.10169 1.20001 2.39999 1.19999V1.19999ZM10.7944 2.79999H5.99439L5.99999 1.19999H9.59999L9.71599 1.20559C10.0128 1.23442 10.2882 1.3727 10.4886 1.59351C10.689 1.81431 10.8 2.10181 10.8 2.39999L10.7944 2.79999ZM10.7944 3.59999L10.8 8.39999H1.19999L1.19439 3.59999H10.7944ZM10.8 9.19999V9.59999L10.7944 9.71599C10.7656 10.0128 10.6273 10.2882 10.4065 10.4886C10.1857 10.689 9.89817 10.8 9.59999 10.8H5.99999V9.19999H10.8Z" fill="#475F7B"/>
</svg>
