<svg width="16" height="16" viewBox="0 0 16 16" fill="none" xmlns="http://www.w3.org/2000/svg">
<path d="M13.1893 0.398407C13.9073 0.398363 14.598 0.655828 15.1198 1.11799C15.6416 1.58014 15.955 2.21196 15.9957 2.88382L16 3.03297V12.7638C16 13.4626 15.7039 14.1327 15.1768 14.6268C14.6497 15.1208 13.9348 15.3984 13.1893 15.3984H2.81152C2.09346 15.3987 1.40252 15.1413 0.8805 14.6791C0.358482 14.2169 0.0449778 13.585 0.00432419 12.913L0 12.7638V3.03297C0 2.33424 0.296122 1.66413 0.823223 1.17005C1.35032 0.675977 2.06523 0.398407 2.81066 0.398407H13.1893ZM7.35095 6.07286L1.29723 6.07367V12.7638L1.30328 12.8935C1.33779 13.2459 1.51154 13.5734 1.79042 13.8119C2.06929 14.0504 2.43318 14.1825 2.81066 14.1825L7.35095 14.1816V6.07286ZM14.7019 10.9367L8.64818 10.9375V14.1816H13.1885C13.5899 14.1816 13.9748 14.0322 14.2586 13.7661C14.5425 13.5001 14.7019 13.1393 14.7019 12.763V10.9367ZM13.1893 1.61436L8.64818 1.61355V9.72234L14.7019 9.72153L14.7028 3.03378L14.6967 2.90408C14.6622 2.55173 14.4885 2.22419 14.2096 1.98573C13.9307 1.74727 13.5668 1.6151 13.1893 1.61517V1.61436ZM7.35095 1.61355L2.81066 1.61436L2.68699 1.61922C2.30846 1.64852 1.95552 1.81016 1.69823 2.07205C1.44093 2.33395 1.29811 2.67695 1.29809 3.03297L1.29723 4.85852H7.35095V1.61274V1.61355Z" fill="white"/>
</svg>
